<svg width="110" height="13" viewBox="0 0 110 13" fill="none" xmlns="http://www.w3.org/2000/svg">
<path d="M7.32386 3.71023C7.27841 3.25189 7.08333 2.89583 6.73864 2.64205C6.39394 2.38826 5.92614 2.26136 5.33523 2.26136C4.93371 2.26136 4.5947 2.31818 4.31818 2.43182C4.04167 2.54167 3.82955 2.69508 3.68182 2.89205C3.53788 3.08902 3.46591 3.3125 3.46591 3.5625C3.45833 3.77083 3.50189 3.95265 3.59659 4.10795C3.69508 4.26326 3.82955 4.39773 4 4.51136C4.17045 4.62121 4.36742 4.7178 4.59091 4.80114C4.81439 4.88068 5.05303 4.94886 5.30682 5.00568L6.35227 5.25568C6.85985 5.36932 7.32576 5.52083 7.75 5.71023C8.17424 5.89962 8.54167 6.13258 8.85227 6.40909C9.16288 6.68561 9.40341 7.01136 9.57386 7.38636C9.74811 7.76136 9.83712 8.19129 9.84091 8.67614C9.83712 9.38826 9.6553 10.0057 9.29545 10.5284C8.93939 11.0473 8.42424 11.4508 7.75 11.7386C7.07955 12.0227 6.27083 12.1648 5.32386 12.1648C4.38447 12.1648 3.56629 12.0208 2.86932 11.733C2.17614 11.4451 1.63447 11.0189 1.24432 10.4545C0.857955 9.88636 0.655303 9.18371 0.636364 8.34659H3.01705C3.04356 8.73674 3.1553 9.0625 3.35227 9.32386C3.55303 9.58144 3.82008 9.77652 4.15341 9.90909C4.49053 10.0379 4.87121 10.1023 5.29545 10.1023C5.71212 10.1023 6.07386 10.0417 6.38068 9.92045C6.69129 9.79924 6.93182 9.63068 7.10227 9.41477C7.27273 9.19886 7.35795 8.95076 7.35795 8.67045C7.35795 8.40909 7.2803 8.18939 7.125 8.01136C6.97348 7.83333 6.75 7.68182 6.45455 7.55682C6.16288 7.43182 5.80492 7.31818 5.38068 7.21591L4.11364 6.89773C3.13258 6.65909 2.35795 6.28598 1.78977 5.77841C1.22159 5.27083 0.939394 4.58712 0.943182 3.72727C0.939394 3.02273 1.12689 2.4072 1.50568 1.88068C1.88826 1.35417 2.41288 0.943182 3.07955 0.647727C3.74621 0.352272 4.50379 0.204545 5.35227 0.204545C6.21591 0.204545 6.9697 0.352272 7.61364 0.647727C8.26136 0.943182 8.76515 1.35417 9.125 1.88068C9.48485 2.4072 9.67045 3.01705 9.68182 3.71023H7.32386ZM15.7151 12L12.3855 0.363636H15.073L16.9991 8.44886H17.0957L19.2207 0.363636H21.5219L23.6412 8.46591H23.7435L25.6696 0.363636H28.3571L25.0276 12H22.6298L20.4139 4.39205H20.323L18.1128 12H15.7151ZM36.577 12V0.363636H39.0372V9.97159H44.0259V12H36.577ZM57.4952 6.18182C57.4952 7.45076 57.2546 8.5303 56.7736 9.42045C56.2963 10.3106 55.6448 10.9905 54.819 11.4602C53.9971 11.9261 53.0728 12.1591 52.0463 12.1591C51.0122 12.1591 50.0842 11.9242 49.2622 11.4545C48.4402 10.9848 47.7906 10.3049 47.3134 9.41477C46.8361 8.52462 46.5974 7.44697 46.5974 6.18182C46.5974 4.91288 46.8361 3.83333 47.3134 2.94318C47.7906 2.05303 48.4402 1.375 49.2622 0.909091C50.0842 0.439394 51.0122 0.204545 52.0463 0.204545C53.0728 0.204545 53.9971 0.439394 54.819 0.909091C55.6448 1.375 56.2963 2.05303 56.7736 2.94318C57.2546 3.83333 57.4952 4.91288 57.4952 6.18182ZM55.0009 6.18182C55.0009 5.35985 54.8777 4.66667 54.6315 4.10227C54.3891 3.53788 54.0463 3.10985 53.6031 2.81818C53.1599 2.52652 52.641 2.38068 52.0463 2.38068C51.4516 2.38068 50.9327 2.52652 50.4895 2.81818C50.0463 3.10985 49.7016 3.53788 49.4554 4.10227C49.213 4.66667 49.0918 5.35985 49.0918 6.18182C49.0918 7.00379 49.213 7.69697 49.4554 8.26136C49.7016 8.82576 50.0463 9.25379 50.4895 9.54545C50.9327 9.83712 51.4516 9.98295 52.0463 9.98295C52.641 9.98295 53.1599 9.83712 53.6031 9.54545C54.0463 9.25379 54.3891 8.82576 54.6315 8.26136C54.8777 7.69697 55.0009 7.00379 55.0009 6.18182ZM68.1051 0.363636H70.5653V7.92045C70.5653 8.76894 70.3627 9.51136 69.9574 10.1477C69.5559 10.7841 68.9934 11.2803 68.2699 11.6364C67.5464 11.9886 66.7036 12.1648 65.7415 12.1648C64.7756 12.1648 63.9309 11.9886 63.2074 11.6364C62.4839 11.2803 61.9214 10.7841 61.5199 10.1477C61.1184 9.51136 60.9176 8.76894 60.9176 7.92045V0.363636H63.3778V7.71023C63.3778 8.15341 63.4744 8.54735 63.6676 8.89205C63.8646 9.23674 64.1411 9.50758 64.4972 9.70455C64.8532 9.90152 65.268 10 65.7415 10C66.2188 10 66.6335 9.90152 66.9858 9.70455C67.3419 9.50758 67.6165 9.23674 67.8097 8.89205C68.0066 8.54735 68.1051 8.15341 68.1051 7.71023V0.363636ZM83.9224 0.363636V12H81.7974L76.7349 4.67614H76.6497V12H74.1895V0.363636H76.3486L81.3713 7.68182H81.4736V0.363636H83.9224ZM95.271 4.125C95.1915 3.84848 95.0797 3.60417 94.9358 3.39205C94.7919 3.17614 94.6157 2.99432 94.4074 2.84659C94.2028 2.69508 93.968 2.57955 93.7028 2.5C93.4415 2.42045 93.1517 2.38068 92.8335 2.38068C92.2388 2.38068 91.7161 2.52841 91.2653 2.82386C90.8184 3.11932 90.4699 3.54924 90.2199 4.11364C89.9699 4.67424 89.8449 5.35985 89.8449 6.17045C89.8449 6.98106 89.968 7.67045 90.2142 8.23864C90.4604 8.80682 90.8089 9.24053 91.2597 9.53977C91.7104 9.83523 92.2426 9.98295 92.8562 9.98295C93.4131 9.98295 93.8884 9.88447 94.2824 9.6875C94.6801 9.48674 94.9831 9.20455 95.1915 8.84091C95.4036 8.47727 95.5097 8.04735 95.5097 7.55114L96.0097 7.625H93.0097V5.77273H97.879V7.23864C97.879 8.26136 97.6631 9.14015 97.2312 9.875C96.7994 10.6061 96.2047 11.1705 95.4472 11.5682C94.6896 11.9621 93.8222 12.1591 92.8449 12.1591C91.754 12.1591 90.7956 11.9186 89.9699 11.4375C89.1441 10.9527 88.5002 10.2652 88.0381 9.375C87.5797 8.48106 87.3506 7.42045 87.3506 6.19318C87.3506 5.25 87.4869 4.40909 87.7597 3.67045C88.0362 2.92803 88.4225 2.29924 88.9187 1.78409C89.415 1.26894 89.9926 0.876893 90.6517 0.607954C91.3108 0.339015 92.0248 0.204545 92.7937 0.204545C93.4528 0.204545 94.0665 0.301136 94.6347 0.494318C95.2028 0.683712 95.7066 0.952651 96.146 1.30114C96.5892 1.64962 96.9509 2.06439 97.2312 2.54545C97.5116 3.02273 97.6915 3.54924 97.771 4.125H95.271ZM101.327 12V0.363636H109.168V2.39205H103.787V5.16477H108.764V7.19318H103.787V9.97159H109.191V12H101.327Z" fill="#2E937A"/>
</svg>
